# xmcd
#
# Track frame offsets:
#	150
#	22208
#	41455
#	55770
#	63858
#	77993
#	89538
#	103365
#	117675
#	127550
#	144363
#
# Disc length: 2227 seconds
#
# Revision: 2
# Processed by: cddbd v1.4PL0 Copyright (c) Steve Scherf et al.
# Submitted via: dBpowerAMP V4.0
#
DISCID=9608b10b
DTITLE=Various Artist - An Evening in December
DYEAR=1985
DGENRE=Christian Christma
TTITLE0=An Evening in December
TTITLE1=Medley: Joy to The World
TTITLE2=Starlight
TTITLE3=How Great Our Joy!
TTITLE4=O Come, o Come Emmanuel
TTITLE5=The First Noel
TTITLE6=One Small Child
TTITLE7=When Jesus Was a Tiny Baby
TTITLE8=Lo! How a Rose E're Blooming
TTITLE9=Have Yourself a Merry Little Christmas
TTITLE10=The New Twelve Days of Christmas
EXTD=
EXTT0=
EXTT1=
EXTT2=
EXTT3=
EXTT4=
EXTT5=
EXTT6=
EXTT7=
EXTT8=
EXTT9=
EXTT10=
PLAYORDER=
